WaRlOrD presents: Knowing
--------------------------
(English audio-external Dutch subs)

Verenigde Staten
Thriller / Science-Fiction
130 minuten

geregisseerd door Alex Proyas
met Nicolas Cage, Rose Byrne en Chandler Canterbury

In 1959 werd tijdens de oprichtingsceremonie van een basisschool een tijdscapsule begraven. Nu, vijftig jaar later, wordt hij geopend. Een professor, John Koestler (Nicolas Cage), ontdekt cryptische boodschappen die zich in de capsule bevinden en bovendien doet hij een angstaanjagende ontdekking: de boodschappen voorspellen met zeer grote precisie iedere grote ramp van de afgelopen 50 jaar. Een aantal voorspellingen die in het document staan moet nog plaatsvinden. John doet er vervolgens alles aan om de autoriteiten te waarschuwen, maar tevergeefs. John moet nu zelf alles op alles zetten om het dreigende gevaar af te wenden. 
http://www.moviemeter.nl/film/48950

-----------------------------------

When a commercial plane crash kills 81, the legitimacy of the list of numbers is confirmed and leading John to believe that Lucinda had an ability to prognosticate since childhood until she died. It is also revealed through this incident that the numbers contain the coordinates for every event listed. As his wife died in one of the past events, John starts to believe his son was chosen to get Lucinda's prophecies. After Caleb receives a vision of future global catastrophe from a silent man, John tries to contact the late Lucinda's daughter, Diana, to gain more information, but is rebuffed. But when John also predicts the second event, a subway train crash, Diana and her daughter, Abby, visit John and Caleb, and Diana reveals that her mother foretold of the date of her death would be on October 19th, which is also within the list. They investigate Lucinda's old mobile home in the woods, discovering walls of news clippings of the events and a drawing of Merkabah|Ezekiel's Wheel. During their investigation, the group encounters the silent man and three others, who vanish in a flash of light protruded from the man's mouth when John confronts them. Later Caleb is found writing numbers very similar to the ones that Lucinda wrote without realizing what he is doing. This may suggest that those numbers are predictions for future events. As a result of the confrontation, Abby is revealed to have been contacted by the "whisper people". 
http://www.imdb.com/title/tt0448011/


Format                           : BDAV
Format/Info                      : Blu-ray Video
File size                        : 3.71 GiB
Duration                         : 39mn 25s
Overall bit rate                 : 13.5 Mbps
Maximum Overall bit rate         : 35.5 Mbps

Video
ID                               : 4113 (0x1011)
Menu ID                          : 1 (0x1)
Format                           : AVC
Format/Info                      : Advanced Video Codec
Format profile                   : High@L4.1
Format settings, CABAC           : Yes
Format settings, ReFrames        : 5 frames
Duration                         : 39mn 25s
Bit rate                         : 11.4 Mbps
Width                            : 1 920 pixels
Height                           : 816 pixels
Display aspect ratio             : 2.35
Frame rate                       : 23.976 fps
Resolution                       : 24 bits
Colorimetry                      : 4:2:0
Scan type                        : Progressive
Bits/(Pixel*Frame)               : 0.303
Stream size                      : 3.14 GiB (85%)
Writing library                  : x264 core 67 r1165 6841c5e
Encoding settings                : cabac=1 / ref=5 / deblock=1:0:0 / analyse=0x3:0x133 / me=umh / subme=7 / psy_rd=1.0:0.0 / mixed_ref=1 / me_range=16 / chroma_me=1 / trellis=1 / 8x8dct=1 / cqm=0 / deadzone=21,11 / chroma_qp_offset=-2 / threads=12 / nr=0 / decimate=1 / mbaff=0 / bframes=3 / b_pyramid=1 / b_adapt=1 / b_bias=0 / direct=1 / wpredb=1 / keyint=250 / keyint_min=25 / scenecut=40 / rc=2pass / bitrate=11375 / ratetol=1.0 / qcomp=0.60 / qpmin=10 / qpmax=51 / qpstep=4 / cplxblur=20.0 / qblur=0.5 / ip_ratio=1.40 / pb_ratio=1.30 / aq=1:1.0
Language                         : English

Audio
ID                               : 4352 (0x1100)
Menu ID                          : 1 (0x1)
Format                           : DTS
Format/Info                      : Digital Theater Systems
Duration                         : 39mn 25s
Bit rate mode                    : Constant
Bit rate                         : 1 510 Kbps
Channel(s)                       : 6 channels
Channel positions                : Front: L C R, Surround: L R, LFE
Sampling rate                    : 48.0 KHz
Resolution                       : 24 bits
Stream size                      : 426 MiB (11%)

Text
ID                               : 4608 (0x1200)
Menu ID                          : 1 (0x1)
Format                           : PGS
Language                         : Dutch

